<svg xmlns="http://www.w3.org/2000/svg" xmlns:xlink="http://www.w3.org/1999/xlink" width="413" zoomAndPan="magnify" viewBox="0 0 309.75 126.749998" height="169" preserveAspectRatio="xMidYMid meet" version="1.0"><defs><g/><clipPath id="f8cfda880b"><path d="M 0.179688 0 L 168 0 L 168 92.804688 L 0.179688 92.804688 Z M 0.179688 0 " clip-rule="nonzero"/></clipPath></defs><path fill="#000000" d="M 35.386719 39.851562 C 36.183594 36.867188 35.257812 32.933594 32.578125 31.160156 C 30.457031 29.925781 27.847656 30.789062 25.554688 31.023438 C 24.25 31.40625 22.855469 31.871094 21.773438 32.722656 C 21.640625 32.628906 21.480469 32.574219 21.285156 32.566406 C 20.304688 33.183594 21.285156 34.585938 21.289062 35.5 C 21.488281 38.675781 21.578125 41.863281 22.09375 45.023438 C 22.125 45.597656 22.699219 46.203125 23.257812 45.921875 C 23.429688 46.039062 23.625 46.140625 23.84375 46.222656 C 28.074219 45.421875 33.28125 44.011719 35.386719 39.851562 " fill-opacity="1" fill-rule="nonzero"/><path fill="#000000" d="M 67.53125 70.976562 C 62.277344 71.433594 62.355469 67.175781 61.488281 63.363281 C 61.058594 61.824219 60.566406 60.304688 60.113281 58.769531 C 59.164062 55.0625 58.589844 51.210938 58.226562 47.402344 C 57.929688 44.433594 58.550781 41.46875 58.183594 38.507812 C 57.949219 36.410156 57.578125 34.316406 57.699219 32.199219 C 58.132812 29.203125 58.199219 26.191406 58.144531 23.171875 C 59.582031 21.554688 61.53125 20.542969 63.542969 19.8125 C 63.804688 19.753906 64.042969 19.726562 64.265625 19.726562 C 66.789062 19.726562 66.882812 23.328125 67.195312 25.328125 C 68.109375 29.53125 68.144531 33.878906 69.339844 38.019531 C 70.019531 40.449219 70.367188 42.960938 70.34375 45.480469 C 70.5625 49.289062 70.617188 53.09375 70.339844 56.898438 C 69.964844 60.859375 73.242188 69.972656 67.53125 70.976562 Z M 74.828125 49.371094 C 74.832031 47.535156 74.488281 45.738281 74.128906 43.945312 C 73.808594 41.84375 74.019531 39.707031 73.773438 37.601562 C 73.289062 34.730469 73.070312 31.816406 72.332031 28.988281 C 71.488281 26.042969 71.800781 22.867188 70.78125 19.96875 C 68.363281 14.722656 67.558594 15.617188 62.492188 15.179688 C 61.027344 15.011719 59.460938 15.246094 58.289062 16.199219 C 57.5 16.449219 56.75 16.800781 56.152344 17.382812 C 52.460938 21.167969 52.382812 26.917969 53.003906 31.851562 C 53.101562 36.421875 53.394531 40.992188 53.625 45.558594 C 53.894531 48.941406 54.472656 52.292969 54.6875 55.6875 C 54.566406 59.449219 54.582031 63.289062 56.417969 66.679688 C 56.925781 69.402344 57.445312 72.5625 59.667969 74.453125 C 61.359375 75.679688 62.464844 76.449219 64.691406 76.5625 C 65.039062 76.554688 65.394531 76.554688 65.746094 76.558594 C 67.101562 76.5625 68.488281 76.566406 69.765625 76.144531 C 73.015625 74.609375 74.429688 70.945312 75.015625 67.617188 C 75.71875 63.925781 74.671875 60.230469 74.394531 56.550781 C 74.292969 54.148438 74.757812 51.765625 74.828125 49.371094 " fill-opacity="1" fill-rule="nonzero"/><path fill="#000000" d="M 90.464844 60.355469 C 90.441406 60.332031 90.417969 60.304688 90.394531 60.28125 C 90.59375 60.464844 90.796875 60.644531 91.007812 60.816406 C 90.992188 60.808594 90.980469 60.800781 90.96875 60.789062 C 90.792969 60.648438 90.628906 60.507812 90.464844 60.355469 Z M 115.757812 48.652344 C 114.386719 48.710938 112.796875 49.324219 112.5625 50.839844 C 112.4375 52.152344 112.625 53.460938 112.839844 54.765625 C 112.648438 54.980469 112.445312 55.1875 112.238281 55.386719 C 111.589844 55.878906 110.992188 56.34375 110.640625 56.441406 C 108.351562 57.660156 105.679688 57.664062 103.179688 58.15625 C 101.949219 58.207031 100.730469 58.023438 99.507812 57.855469 C 98.140625 56.6875 95.964844 55.855469 95.054688 54.765625 C 92.675781 52.03125 91.449219 48.382812 91.195312 44.808594 C 92.15625 40.988281 92.1875 36.925781 93.789062 33.277344 C 95.09375 31.835938 96.101562 30.1875 97.253906 28.636719 C 97.78125 27.957031 98.488281 27.414062 99.046875 26.769531 C 99.390625 26.621094 99.726562 26.457031 100.0625 26.28125 C 102.09375 26.105469 104.132812 26.085938 106.171875 25.949219 C 106.816406 25.828125 107.578125 25.886719 108.351562 25.945312 C 108.945312 25.992188 109.546875 26.035156 110.109375 26 C 110.234375 26.824219 110.386719 27.644531 110.566406 28.457031 C 110.59375 29.355469 110.980469 30.785156 112.15625 30.445312 C 112.484375 30.703125 112.957031 30.820312 113.472656 30.820312 C 114.742188 30.820312 116.265625 30.101562 116.453125 29.007812 C 116.625 27.402344 116 25.832031 115.769531 24.253906 C 115.492188 22.671875 115.539062 21.066406 115.480469 19.464844 C 115.433594 16.160156 114.359375 16.484375 112.546875 16.804688 C 111.996094 16.902344 111.371094 17 110.6875 16.996094 C 108.773438 17.242188 109.835938 19.636719 109.617188 20.917969 C 109.621094 20.972656 109.621094 21.023438 109.625 21.078125 C 109.613281 21.078125 109.601562 21.078125 109.589844 21.074219 C 109.410156 21.058594 109.230469 21.042969 109.050781 21.03125 C 108.898438 21.019531 108.738281 20.992188 108.589844 20.996094 C 108.265625 21 107.9375 21.007812 107.617188 21.015625 C 107.015625 21.03125 106.429688 21.003906 105.835938 20.957031 C 105.160156 20.863281 104.484375 20.734375 103.804688 20.691406 C 103.113281 20.648438 102.421875 20.6875 101.730469 20.738281 C 101.375 20.769531 101.015625 20.796875 100.65625 20.832031 C 100.3125 20.863281 99.964844 20.886719 99.625 20.949219 C 98.921875 21.078125 98.242188 21.308594 97.546875 21.476562 C 96.886719 21.636719 96.21875 21.761719 95.5625 21.9375 C 95.207031 22.03125 94.875 22.175781 94.539062 22.320312 C 94.203125 22.464844 93.867188 22.65625 93.5625 22.855469 C 92.953125 23.253906 92.34375 23.65625 91.75 24.070312 C 91.179688 24.46875 90.640625 24.886719 90.160156 25.386719 C 89.707031 25.828125 89.222656 26.417969 88.75 27.023438 C 88.351562 27.535156 87.949219 28.035156 87.550781 28.542969 C 86.664062 29.671875 85.902344 30.894531 85.417969 32.246094 C 84.90625 33.671875 84.640625 35.203125 84.558594 36.714844 C 84.53125 37.15625 84.507812 37.597656 84.511719 38.046875 C 84.515625 38.386719 84.539062 38.730469 84.550781 39.074219 C 84.570312 39.765625 84.574219 40.453125 84.554688 41.140625 C 84.496094 42.023438 84.402344 42.894531 84.285156 43.773438 C 84.164062 44.6875 84.042969 45.613281 84.027344 46.535156 C 84.011719 47.472656 84.039062 48.402344 84.144531 49.335938 C 84.242188 50.238281 84.4375 51.128906 84.609375 52.019531 C 84.773438 53.039062 84.863281 54.066406 85.019531 55.089844 C 85.191406 56.1875 85.472656 57.296875 85.898438 58.328125 C 86.34375 59.402344 86.824219 60.46875 87.621094 61.332031 C 87.988281 61.734375 88.429688 62.054688 88.875 62.359375 C 89.257812 62.628906 89.65625 62.875 90.070312 63.085938 C 90.667969 63.386719 91.289062 63.625 91.90625 63.871094 C 92.507812 64.109375 93.113281 64.351562 93.71875 64.589844 C 94.828125 65.035156 96.019531 65.265625 97.207031 65.394531 C 97.753906 65.453125 98.300781 65.476562 98.847656 65.476562 C 99.617188 65.476562 100.386719 65.433594 101.15625 65.390625 C 102.371094 65.320312 103.597656 65.335938 104.808594 65.199219 C 105.46875 65.121094 106.128906 65.039062 106.769531 64.855469 C 107.058594 64.773438 107.363281 64.695312 107.640625 64.574219 C 107.914062 64.453125 108.179688 64.328125 108.441406 64.1875 C 108.992188 63.894531 109.496094 63.523438 109.988281 63.144531 C 110.429688 62.808594 110.859375 62.441406 111.265625 62.058594 C 111.523438 61.824219 111.804688 61.59375 112.035156 61.328125 C 112.242188 61.089844 112.4375 60.84375 112.617188 60.585938 C 112.761719 60.371094 112.902344 60.152344 113.035156 59.929688 C 113.082031 60.34375 113.207031 60.75 113.464844 61.128906 C 113.5 61.804688 113.503906 62.605469 113.980469 63.101562 C 114.199219 63.625 114.6875 63.855469 115.226562 63.855469 C 115.9375 63.855469 116.738281 63.457031 117.113281 62.804688 C 117.277344 62.402344 117.3125 61.980469 117.289062 61.558594 C 118.089844 60.339844 117.359375 58.054688 117.4375 56.671875 C 117.289062 54.839844 117.695312 53.03125 117.683594 51.207031 C 117.675781 50.089844 117.125 48.519531 115.757812 48.652344 " fill-opacity="1" fill-rule="nonzero"/><g clip-path="url(#f8cfda880b)"><path fill="#000000" d="M 154.710938 70.996094 C 152.996094 68.765625 152.0625 65.976562 150.007812 63.960938 C 148.210938 61.828125 147.273438 59.097656 145.445312 56.972656 C 143.304688 54.785156 142.554688 51.675781 140.484375 49.425781 C 139.652344 48.628906 139.542969 47.144531 138.570312 46.554688 C 137.855469 45.734375 136.207031 46.800781 137.472656 47.878906 C 137.558594 51.097656 136.453125 54.21875 136.886719 57.433594 C 136.855469 60.085938 136.800781 62.722656 137.183594 65.359375 C 137.359375 67.527344 136.957031 69.679688 137.035156 71.851562 C 135.996094 71.832031 134.949219 71.917969 133.917969 72.039062 C 133.277344 72.128906 132.699219 72.464844 132.105469 72.710938 C 132.109375 71.253906 131.78125 69.453125 131.722656 68.796875 C 131.632812 65.101562 131.332031 61.359375 131.339844 57.621094 C 131.570312 55.28125 131.292969 52.957031 131.070312 50.628906 C 131.085938 48.070312 131.121094 45.699219 130.957031 43.113281 C 131.105469 40.53125 131.089844 37.960938 130.703125 35.398438 C 130.785156 32.1875 130.675781 28.976562 129.902344 25.84375 C 129.496094 23.621094 129.945312 21.316406 129.445312 19.097656 C 129.261719 17.191406 129.464844 15.25 128.941406 13.378906 C 128.785156 12.710938 128.917969 11.6875 128.886719 10.789062 C 128.945312 10.738281 129 10.671875 129.042969 10.585938 C 129.214844 10.574219 129.390625 10.570312 129.5625 10.570312 C 130.171875 10.570312 130.777344 10.632812 131.382812 10.695312 C 132.394531 10.796875 133.40625 10.902344 134.421875 10.714844 C 133.867188 13.042969 134.113281 15.417969 134.421875 17.761719 C 134.394531 20.347656 134.296875 22.929688 134.753906 25.496094 C 135.019531 27.496094 134.660156 29.519531 134.859375 31.527344 C 135.046875 34.210938 135.570312 36.855469 136.152344 39.480469 C 136.554688 40.339844 137.132812 40.113281 137.421875 39.585938 C 138.394531 38.898438 139.136719 34.949219 139.734375 34.34375 C 140.410156 33.007812 140.695312 31.527344 141.144531 30.113281 C 141.921875 28.484375 142.515625 26.78125 142.882812 25.015625 C 143.199219 22.953125 144.132812 21.085938 144.628906 19.070312 C 145.375 16.550781 146.117188 14.027344 147.054688 11.578125 C 148.296875 11.621094 149.527344 11.738281 150.765625 11.496094 C 151.996094 11.359375 153.183594 11.78125 154.40625 11.832031 C 153.054688 15.222656 150.964844 18.253906 149.640625 21.664062 C 147.839844 25.292969 146.777344 29.195312 145.417969 32.992188 C 144.8125 34.769531 140.808594 41.09375 142.695312 42.332031 C 142.769531 42.367188 142.839844 42.390625 142.90625 42.410156 C 143.296875 43.636719 144.472656 44.597656 145.054688 45.753906 C 145.753906 47.4375 146.886719 48.875 147.84375 50.414062 C 148.625 52.304688 149.515625 54.179688 150.808594 55.785156 C 152.671875 58.851562 154.355469 62.058594 156.332031 65.066406 C 157.269531 66.863281 158.019531 68.75 159.257812 70.382812 C 157.726562 70.332031 156.148438 70.429688 154.710938 70.996094 Z M 116.625 70.554688 C 114.023438 71.59375 111.261719 71.59375 108.503906 71.507812 C 105.507812 71.695312 102.609375 72.703125 99.582031 72.726562 C 97.839844 72.792969 96.140625 73.179688 94.421875 73.433594 C 92.539062 73.679688 90.613281 73.371094 88.753906 73.808594 C 87.414062 74.171875 86.074219 74.554688 84.707031 74.761719 C 84.410156 71.917969 83.621094 69.148438 83.324219 66.300781 C 82.953125 62 82.789062 57.667969 81.910156 53.429688 C 81.542969 50.101562 82.015625 46.742188 81.644531 43.40625 C 81.25 39.199219 81.566406 34.960938 80.75 30.785156 C 80.503906 27.421875 80.785156 24.027344 79.996094 20.707031 C 79.851562 19.253906 79.789062 17.796875 79.714844 16.34375 C 80.785156 16.023438 81.898438 15.589844 82.476562 15.589844 C 82.492188 15.589844 82.507812 15.589844 82.523438 15.589844 C 84.070312 15.414062 85.574219 15.007812 87.035156 14.472656 C 88.542969 14.179688 90.085938 14.242188 91.589844 13.890625 C 94.296875 13.03125 97.089844 13.648438 99.859375 13.71875 C 102.6875 13.703125 105.480469 12.960938 108.296875 13.542969 C 110.441406 13.765625 112.574219 13.507812 114.714844 13.253906 C 116.808594 13.003906 118.902344 12.75 121.015625 12.949219 C 121.019531 13.441406 121.027344 13.933594 121.039062 14.421875 C 120.351562 18.757812 120.355469 23.222656 120.816406 27.574219 C 120.976562 31.105469 120.957031 34.628906 121.296875 38.152344 C 121.699219 41.285156 121.476562 44.398438 121.464844 47.539062 C 121.484375 48.246094 121.574219 48.945312 121.683594 49.644531 C 121.652344 50.644531 121.65625 51.648438 121.742188 52.65625 C 121.632812 55.332031 121.53125 58.027344 122.007812 60.671875 C 122.011719 60.839844 122.015625 61.007812 122.027344 61.171875 C 122.035156 61.296875 122.046875 61.417969 122.058594 61.542969 C 122.125 64.082031 122.050781 66.628906 122.105469 69.175781 C 120.355469 69.917969 118.472656 70.140625 116.625 70.554688 Z M 78.257812 86.480469 C 74.511719 87.539062 70.582031 87.765625 66.710938 87.996094 C 62.242188 88.339844 57.859375 90.328125 53.355469 89.128906 C 52.835938 88.261719 52.324219 87.800781 51.863281 87.632812 C 51.71875 86.492188 51.582031 85.351562 51.714844 84.195312 C 52.292969 80.722656 51.566406 77.335938 51.324219 73.878906 C 51.183594 68.734375 50.039062 63.628906 49.996094 58.472656 C 49.703125 54.242188 49.53125 50.027344 48.957031 45.824219 C 49.082031 44.054688 48.992188 42.300781 48.785156 40.554688 C 48.671875 38.949219 48.503906 37.34375 48.363281 35.734375 C 48.3125 34.589844 48.238281 33.449219 48.121094 32.304688 C 48.105469 32.035156 48.097656 31.761719 48.089844 31.484375 C 48.402344 28.464844 48.316406 25.472656 47.984375 22.472656 C 47.996094 21.753906 47.941406 21.050781 47.757812 20.371094 C 47.910156 16.707031 47.230469 13.101562 46.875 9.484375 C 47.671875 9.628906 48.628906 9.25 49.421875 9.230469 C 51.015625 9.019531 52.570312 9.539062 54.160156 9.59375 C 55.734375 9.449219 57.289062 9.609375 58.84375 9.773438 C 60.773438 9.972656 62.699219 10.171875 64.652344 9.785156 C 66.652344 9.554688 68.597656 10.160156 70.578125 10.3125 C 72.898438 10.628906 75.242188 10.65625 77.5625 10.941406 C 77.445312 12.351562 77.304688 13.765625 77.257812 15.175781 C 77.097656 15.34375 76.996094 15.550781 76.976562 15.8125 C 76.984375 16.121094 77.082031 16.332031 77.246094 16.46875 C 77.265625 17.628906 77.375 18.789062 77.636719 19.945312 C 77.769531 23.816406 78.804688 27.578125 78.972656 31.429688 C 78.699219 34.566406 78.824219 37.703125 79.125 40.828125 C 79.085938 44.253906 79.339844 47.667969 79.921875 51.046875 C 80.195312 52.832031 79.972656 54.636719 80.03125 56.429688 C 80.0625 58.515625 80.570312 60.554688 80.730469 62.625 C 80.839844 64.644531 81.292969 66.625 81.492188 68.632812 C 81.59375 70.339844 81.433594 72.054688 81.632812 73.753906 C 82.121094 77.4375 83.398438 80.832031 83.671875 84.585938 C 81.773438 84.929688 80.089844 85.933594 78.257812 86.480469 Z M 37.503906 62.488281 C 35.902344 59.480469 38.269531 55.90625 33.820312 53.671875 C 31.261719 52.433594 29.1875 52.414062 26.445312 52.871094 C 24.609375 53.214844 21.789062 52.894531 22.046875 55.429688 C 21.636719 55.621094 21.3125 56.109375 21.339844 56.894531 C 21.054688 59.914062 21.996094 63.15625 22.8125 66.039062 C 20.488281 66.003906 18.058594 65.933594 15.839844 66.722656 C 16.398438 66.484375 17.066406 65.882812 17.261719 65.300781 C 18.605469 64.09375 16.882812 57.292969 16.796875 56.074219 C 16.53125 54.308594 16.765625 52.523438 16.628906 50.75 C 16.578125 48.855469 15.835938 47.058594 15.800781 45.167969 C 15.78125 43.171875 15.273438 41.242188 14.980469 39.277344 C 14.816406 38.417969 15.097656 36.128906 14.679688 34.855469 C 14.945312 34.152344 14.765625 33.15625 14.042969 32.878906 C 13.617188 32.722656 13.179688 32.683594 12.730469 32.683594 C 12.476562 32.683594 12.21875 32.695312 11.960938 32.710938 C 11.632812 32.726562 11.304688 32.746094 10.980469 32.734375 C 10.792969 32.746094 10.585938 32.738281 10.367188 32.730469 C 10.148438 32.722656 9.917969 32.714844 9.703125 32.726562 C 9.804688 31.230469 9.09375 29.730469 9.214844 28.207031 C 10.859375 27.902344 12.5 27.964844 14.140625 28.027344 C 15.894531 28.097656 17.648438 28.164062 19.394531 27.785156 C 22.488281 27.460938 25.445312 26.300781 28.578125 26.652344 C 29.542969 26.742188 30.53125 26.648438 31.519531 26.558594 C 33.214844 26.402344 34.902344 26.246094 36.441406 27.007812 C 37.832031 27.8125 38.8125 29.132812 40.089844 30.09375 C 42.015625 31.609375 42.257812 34.070312 42.160156 36.351562 C 42.03125 37.914062 42.328125 39.488281 42.171875 41.042969 C 41.472656 43.871094 39.152344 46.015625 36.660156 47.375 C 35.796875 47.941406 34.613281 47.832031 33.460938 47.722656 C 32.101562 47.597656 30.78125 47.46875 30.0625 48.445312 C 29.738281 49.109375 29.828125 50.019531 30.398438 50.523438 C 30.65625 50.875 32.617188 50.601562 34.714844 50.128906 C 35.636719 50.175781 36.515625 50.503906 37.390625 50.859375 C 42.34375 53.445312 38.726562 60.589844 44.007812 62.46875 C 43.027344 63.820312 38.421875 64.296875 37.503906 62.488281 Z M 167.082031 70.371094 C 166.433594 66.84375 166.964844 63.269531 166.648438 59.726562 C 166.289062 57.371094 165.46875 55.058594 165.722656 52.636719 C 165.878906 48.070312 165.367188 43.539062 165.085938 39 C 165.453125 35.675781 165.183594 32.339844 164.644531 29.050781 C 164.441406 25.984375 164.402344 22.910156 163.710938 19.894531 C 163.121094 16.558594 163.550781 13.164062 163.289062 9.796875 C 163.066406 7.609375 163.738281 5.351562 163.078125 3.21875 C 162.726562 1.757812 161.121094 1.695312 159.878906 1.609375 C 158.085938 1.558594 156.472656 1.300781 154.644531 1.234375 C 151.621094 0.648438 148.449219 0.496094 145.402344 1.042969 C 143.570312 1.261719 141.890625 0.484375 140.121094 0.21875 C 138.351562 -0.0625 136.601562 0.386719 134.847656 0.5625 C 132.335938 0.390625 129.902344 0.566406 127.445312 1.109375 C 126.777344 1.15625 126.109375 1.140625 125.441406 1.121094 C 124.414062 1.09375 123.390625 1.066406 122.375 1.289062 C 122.273438 1.304688 122.167969 1.316406 122.054688 1.328125 C 122.042969 1.285156 122.035156 1.246094 122.019531 1.203125 C 121.363281 0.628906 121.042969 0.941406 120.894531 1.503906 C 120.59375 1.597656 120.328125 1.746094 120.15625 2.011719 C 119.867188 2.75 120.195312 3.117188 120.816406 3.277344 C 120.816406 3.285156 120.820312 3.292969 120.820312 3.300781 C 120.929688 5.1875 120.953125 7.070312 120.863281 8.957031 C 120.90625 9.4375 120.9375 9.917969 120.957031 10.398438 C 119.515625 10.15625 117.464844 10.402344 115.617188 10.648438 C 113.976562 10.867188 112.5 11.085938 111.757812 10.960938 C 109.839844 10.960938 107.949219 11.367188 106.042969 11.554688 C 103.058594 11.480469 100.089844 10.992188 97.109375 11.457031 C 95.621094 11.742188 94.136719 11.699219 92.648438 11.65625 C 91.878906 11.636719 91.113281 11.613281 90.34375 11.636719 C 88.960938 11.707031 87.664062 12.316406 86.300781 12.527344 C 84.644531 12.726562 83.152344 13.457031 81.632812 14.089844 C 81.171875 14.289062 80.390625 14.347656 79.601562 14.4375 C 79.523438 13.289062 79.410156 12.140625 79.21875 10.996094 C 79.324219 9.757812 79.0625 8.136719 77.507812 8.132812 C 74.957031 7.691406 72.375 7.476562 69.785156 7.667969 C 66.773438 8.09375 63.859375 7.378906 60.886719 7.054688 C 58.363281 7.183594 55.917969 6.933594 53.386719 6.925781 C 51.269531 7.382812 49.085938 7.183594 46.984375 7.609375 C 46.945312 7.589844 46.910156 7.570312 46.875 7.558594 C 46.5625 7.226562 46.003906 7.179688 45.769531 7.902344 C 45.546875 10.890625 46.238281 13.925781 46.140625 16.941406 C 46.238281 17.558594 46.324219 18.175781 46.394531 18.792969 C 46.1875 18.773438 45.96875 18.796875 45.757812 18.847656 C 45.113281 18.851562 44.46875 18.839844 43.828125 18.832031 C 41.230469 18.792969 38.644531 18.753906 36.097656 19.4375 C 34.734375 19.6875 33.355469 19.667969 31.976562 19.652344 C 31.039062 19.640625 30.105469 19.628906 29.175781 19.699219 C 26.730469 19.847656 24.304688 20.339844 21.855469 20.417969 C 18.65625 20.183594 15.605469 18.957031 12.339844 19.355469 C 9.226562 18.730469 6.144531 19.484375 3.03125 19.546875 C 2.378906 19.570312 2.011719 19.890625 1.859375 20.296875 C 1.164062 19.921875 0.457031 21.925781 1.359375 22.527344 C 1.199219 22.773438 1.125 23.125 1.238281 23.472656 C 0.273438 24.496094 1.496094 25.824219 1.339844 27.03125 C 1.128906 29.003906 0.964844 30.996094 1.613281 32.914062 C 1.777344 34.761719 2.003906 36.59375 2.351562 38.417969 C 2.222656 40.046875 2.425781 41.636719 2.71875 43.21875 C 2.351562 43.203125 2.035156 43.617188 2.082031 44.429688 C 2.808594 46.792969 3.066406 49.210938 3.316406 51.636719 C 3.429688 54.554688 3.386719 57.480469 3.867188 60.371094 C 3.925781 63.105469 3.890625 65.839844 3.925781 68.574219 C 3.714844 68.722656 3.566406 68.988281 3.601562 69.289062 C 3.667969 70.042969 3.757812 70.789062 3.859375 71.535156 C 3.515625 72.425781 3.636719 73.671875 4.226562 74.375 C 4.234375 74.378906 4.238281 74.382812 4.246094 74.382812 C 4.316406 74.925781 4.382812 75.46875 4.441406 76.015625 C 4.492188 76.605469 4.0625 78.503906 4.910156 78.339844 C 5.066406 78.859375 5.328125 79.289062 5.683594 79.464844 C 7.070312 79.839844 8.445312 80.382812 9.855469 80.675781 C 12.871094 80.8125 15.695312 79.625 18.585938 78.964844 C 21.148438 78.410156 23.796875 78.5 26.367188 77.980469 C 27.824219 77.671875 29.300781 77.691406 30.777344 77.710938 C 31.761719 77.722656 32.746094 77.734375 33.726562 77.648438 C 36.300781 77.261719 38.851562 76.875 41.457031 76.761719 C 44.308594 76.46875 46.886719 75.003906 49.679688 74.421875 C 49.722656 74.757812 49.761719 75.089844 49.800781 75.425781 C 49.984375 77.242188 49.535156 79.050781 49.671875 80.867188 C 49.957031 83.351562 49.921875 85.914062 50.332031 88.371094 C 49.652344 89.675781 49.992188 92.148438 52.523438 92.703125 C 52.910156 92.777344 53.296875 92.804688 53.683594 92.804688 C 55.667969 92.804688 57.625 92.015625 59.609375 91.878906 C 61.640625 91.828125 63.675781 91.96875 65.660156 91.421875 C 68.128906 90.875 70.675781 91.144531 73.152344 90.757812 C 75.035156 90.414062 76.839844 89.695312 78.753906 89.488281 C 81.242188 89.382812 84.445312 89.296875 85.863281 86.859375 C 86.417969 85.558594 85.695312 84.160156 85.425781 82.863281 C 84.929688 81.113281 84.902344 79.289062 84.804688 77.484375 C 84.804688 77.464844 84.804688 77.445312 84.804688 77.425781 C 85.304688 77.367188 85.824219 77.21875 86.292969 77.1875 C 88.417969 76.800781 90.523438 76.292969 92.667969 76.054688 C 94.546875 75.878906 96.449219 75.902344 98.304688 75.527344 C 100.554688 74.878906 102.863281 74.585938 105.199219 74.921875 C 108.453125 75.613281 111.359375 73.835938 114.476562 73.289062 C 117.105469 73.226562 119.625 72.609375 122.117188 71.808594 C 122.152344 71.804688 122.1875 71.800781 122.21875 71.796875 C 122.28125 72.640625 122.363281 73.480469 122.484375 74.324219 C 122.773438 77.015625 122.03125 79.972656 123.007812 82.535156 C 122.050781 83.078125 122.160156 85.386719 123.621094 85.429688 C 127.960938 84.742188 132.40625 84.324219 136.800781 83.980469 C 137.644531 83.960938 138.476562 84.082031 139.308594 84.203125 C 140.402344 84.363281 141.492188 84.519531 142.601562 84.367188 C 144.378906 84.144531 146.0625 83.464844 147.753906 82.898438 C 149.742188 82.292969 151.820312 82.347656 153.875 82.3125 C 157.933594 81.792969 162.03125 82.152344 166.035156 81.285156 C 168.945312 80.21875 167.269531 72.921875 167.082031 70.371094 " fill-opacity="1" fill-rule="nonzero"/></g><g fill="#000000" fill-opacity="1"><g transform="translate(173.319165, 57.956421)"><g><path d="M 37.25 -37.03125 L 18.234375 5.03125 C 16.816406 8.300781 15.171875 10.617188 13.296875 11.984375 C 11.429688 13.359375 9.222656 14.046875 6.671875 14.046875 C 4.960938 14.046875 3.363281 13.757812 1.875 13.1875 C 0.382812 12.625 -0.878906 11.800781 -1.921875 10.71875 L -0.140625 8.015625 C 1.753906 9.953125 4.046875 10.921875 6.734375 10.921875 C 8.535156 10.921875 10.070312 10.425781 11.34375 9.4375 C 12.625 8.445312 13.8125 6.742188 14.90625 4.328125 L 16.890625 -0.140625 L 0.21875 -37.03125 L 3.96875 -37.03125 L 18.796875 -3.90625 L 33.625 -37.03125 Z M 37.25 -37.03125 "/></g></g></g><g fill="#000000" fill-opacity="1"><g transform="translate(203.823255, 57.956421)"><g><path d="M 22 0.28125 C 18.5 0.28125 15.335938 -0.519531 12.515625 -2.125 C 9.703125 -3.738281 7.492188 -5.972656 5.890625 -8.828125 C 4.285156 -11.691406 3.484375 -14.921875 3.484375 -18.515625 C 3.484375 -22.109375 4.285156 -25.335938 5.890625 -28.203125 C 7.492188 -31.066406 9.703125 -33.300781 12.515625 -34.90625 C 15.335938 -36.519531 18.5 -37.328125 22 -37.328125 C 25.5 -37.328125 28.65625 -36.519531 31.46875 -34.90625 C 34.28125 -33.300781 36.488281 -31.066406 38.09375 -28.203125 C 39.707031 -25.335938 40.515625 -22.109375 40.515625 -18.515625 C 40.515625 -14.921875 39.707031 -11.691406 38.09375 -8.828125 C 36.488281 -5.972656 34.28125 -3.738281 31.46875 -2.125 C 28.65625 -0.519531 25.5 0.28125 22 0.28125 Z M 22 -2.90625 C 24.832031 -2.90625 27.375 -3.566406 29.625 -4.890625 C 31.875 -6.210938 33.644531 -8.054688 34.9375 -10.421875 C 36.238281 -12.796875 36.890625 -15.492188 36.890625 -18.515625 C 36.890625 -21.546875 36.238281 -24.242188 34.9375 -26.609375 C 33.644531 -28.972656 31.875 -30.816406 29.625 -32.140625 C 27.375 -33.460938 24.832031 -34.125 22 -34.125 C 19.15625 -34.125 16.609375 -33.460938 14.359375 -32.140625 C 12.117188 -30.816406 10.347656 -28.972656 9.046875 -26.609375 C 7.742188 -24.242188 7.09375 -21.546875 7.09375 -18.515625 C 7.09375 -15.492188 7.742188 -12.796875 9.046875 -10.421875 C 10.347656 -8.054688 12.117188 -6.210938 14.359375 -4.890625 C 16.609375 -3.566406 19.15625 -2.90625 22 -2.90625 Z M 22 -2.90625 "/></g></g></g><g fill="#000000" fill-opacity="1"><g transform="translate(240.85392, 57.956421)"><g><path d="M 39.953125 -37.03125 L 39.953125 0 L 36.546875 0 L 36.546875 -7.953125 C 35.316406 -5.347656 33.492188 -3.320312 31.078125 -1.875 C 28.660156 -0.4375 25.820312 0.28125 22.5625 0.28125 C 17.738281 0.28125 13.953125 -1.066406 11.203125 -3.765625 C 8.460938 -6.460938 7.09375 -10.335938 7.09375 -15.390625 L 7.09375 -37.03125 L 10.640625 -37.03125 L 10.640625 -15.6875 C 10.640625 -11.519531 11.703125 -8.347656 13.828125 -6.171875 C 15.960938 -3.992188 18.96875 -2.90625 22.84375 -2.90625 C 27.007812 -2.90625 30.3125 -4.207031 32.75 -6.8125 C 35.1875 -9.414062 36.40625 -12.914062 36.40625 -17.3125 L 36.40625 -37.03125 Z M 39.953125 -37.03125 "/></g></g></g><g fill="#000000" fill-opacity="1"><g transform="translate(281.3607, 57.956421)"><g><path d="M 10.921875 -28.953125 C 12.054688 -31.648438 13.828125 -33.71875 16.234375 -35.15625 C 18.648438 -36.601562 21.585938 -37.328125 25.046875 -37.328125 L 25.046875 -33.84375 L 24.1875 -33.921875 C 20.070312 -33.921875 16.851562 -32.628906 14.53125 -30.046875 C 12.21875 -27.472656 11.0625 -23.890625 11.0625 -19.296875 L 11.0625 0 L 7.515625 0 L 7.515625 -37.03125 L 10.921875 -37.03125 Z M 10.921875 -28.953125 "/></g></g></g><g fill="#000000" fill-opacity="1"><g transform="translate(87.153349, 125.484276)"><g><path d="M 22.171875 -31.046875 C 25.015625 -31.046875 27.601562 -30.390625 29.9375 -29.078125 C 32.269531 -27.773438 34.097656 -25.9375 35.421875 -23.5625 C 36.742188 -21.195312 37.40625 -18.441406 37.40625 -15.296875 C 37.40625 -12.148438 36.742188 -9.390625 35.421875 -7.015625 C 34.097656 -4.648438 32.269531 -2.8125 29.9375 -1.5 C 27.601562 -0.195312 25.015625 0.453125 22.171875 0.453125 C 17.960938 0.453125 14.757812 -0.875 12.5625 -3.53125 L 12.5625 0 L 4.09375 0 L 4.09375 -42.1875 L 12.96875 -42.1875 L 12.96875 -27.34375 C 15.195312 -29.8125 18.265625 -31.046875 22.171875 -31.046875 Z M 20.640625 -6.828125 C 22.910156 -6.828125 24.773438 -7.59375 26.234375 -9.125 C 27.703125 -10.65625 28.4375 -12.710938 28.4375 -15.296875 C 28.4375 -17.867188 27.703125 -19.921875 26.234375 -21.453125 C 24.773438 -22.992188 22.910156 -23.765625 20.640625 -23.765625 C 18.367188 -23.765625 16.5 -22.992188 15.03125 -21.453125 C 13.570312 -19.921875 12.84375 -17.867188 12.84375 -15.296875 C 12.84375 -12.710938 13.570312 -10.65625 15.03125 -9.125 C 16.5 -7.59375 18.367188 -6.828125 20.640625 -6.828125 Z M 20.640625 -6.828125 "/></g></g></g><g fill="#000000" fill-opacity="1"><g transform="translate(120.813777, 125.484276)"><g><path d="M 34.90625 -30.59375 L 34.90625 0 L 26.5 0 L 26.5 -3.640625 C 25.320312 -2.316406 23.914062 -1.300781 22.28125 -0.59375 C 20.65625 0.101562 18.894531 0.453125 17 0.453125 C 12.976562 0.453125 9.789062 -0.703125 7.4375 -3.015625 C 5.09375 -5.328125 3.921875 -8.757812 3.921875 -13.3125 L 3.921875 -30.59375 L 12.796875 -30.59375 L 12.796875 -14.609375 C 12.796875 -9.679688 14.859375 -7.21875 18.984375 -7.21875 C 21.109375 -7.21875 22.816406 -7.910156 24.109375 -9.296875 C 25.398438 -10.679688 26.046875 -12.738281 26.046875 -15.46875 L 26.046875 -30.59375 Z M 34.90625 -30.59375 "/></g></g></g><g fill="#000000" fill-opacity="1"><g transform="translate(154.303619, 125.484276)"><g><path d="M 14.390625 0.453125 C 11.847656 0.453125 9.363281 0.140625 6.9375 -0.484375 C 4.507812 -1.109375 2.578125 -1.894531 1.140625 -2.84375 L 4.09375 -9.21875 C 5.457031 -8.34375 7.101562 -7.628906 9.03125 -7.078125 C 10.96875 -6.523438 12.867188 -6.25 14.734375 -6.25 C 18.484375 -6.25 20.359375 -7.179688 20.359375 -9.046875 C 20.359375 -9.910156 19.84375 -10.53125 18.8125 -10.90625 C 17.789062 -11.289062 16.21875 -11.617188 14.09375 -11.890625 C 11.59375 -12.265625 9.523438 -12.695312 7.890625 -13.1875 C 6.265625 -13.6875 4.851562 -14.5625 3.65625 -15.8125 C 2.46875 -17.0625 1.875 -18.84375 1.875 -21.15625 C 1.875 -23.082031 2.429688 -24.796875 3.546875 -26.296875 C 4.671875 -27.796875 6.300781 -28.960938 8.4375 -29.796875 C 10.582031 -30.628906 13.113281 -31.046875 16.03125 -31.046875 C 18.195312 -31.046875 20.347656 -30.804688 22.484375 -30.328125 C 24.628906 -29.859375 26.398438 -29.207031 27.796875 -28.375 L 24.84375 -22.0625 C 22.15625 -23.570312 19.21875 -24.328125 16.03125 -24.328125 C 14.132812 -24.328125 12.710938 -24.0625 11.765625 -23.53125 C 10.816406 -23.007812 10.34375 -22.332031 10.34375 -21.5 C 10.34375 -20.550781 10.851562 -19.882812 11.875 -19.5 C 12.90625 -19.125 14.539062 -18.765625 16.78125 -18.421875 C 19.28125 -18.003906 21.320312 -17.554688 22.90625 -17.078125 C 24.5 -16.609375 25.882812 -15.75 27.0625 -14.5 C 28.238281 -13.25 28.828125 -11.503906 28.828125 -9.265625 C 28.828125 -7.367188 28.257812 -5.679688 27.125 -4.203125 C 25.988281 -2.722656 24.328125 -1.578125 22.140625 -0.765625 C 19.960938 0.046875 17.378906 0.453125 14.390625 0.453125 Z M 14.390625 0.453125 "/></g></g></g><g fill="#000000" fill-opacity="1"><g transform="translate(178.923362, 125.484276)"><g><path d="M 4.09375 -30.59375 L 12.96875 -30.59375 L 12.96875 0 L 4.09375 0 Z M 8.53125 -34.859375 C 6.90625 -34.859375 5.578125 -35.332031 4.546875 -36.28125 C 3.523438 -37.226562 3.015625 -38.398438 3.015625 -39.796875 C 3.015625 -41.203125 3.523438 -42.378906 4.546875 -43.328125 C 5.578125 -44.273438 6.90625 -44.75 8.53125 -44.75 C 10.164062 -44.75 11.492188 -44.289062 12.515625 -43.375 C 13.535156 -42.46875 14.046875 -41.332031 14.046875 -39.96875 C 14.046875 -38.488281 13.535156 -37.265625 12.515625 -36.296875 C 11.492188 -35.335938 10.164062 -34.859375 8.53125 -34.859375 Z M 8.53125 -34.859375 "/></g></g></g><g fill="#000000" fill-opacity="1"><g transform="translate(190.465398, 125.484276)"><g><path d="M 22.6875 -31.046875 C 26.476562 -31.046875 29.535156 -29.90625 31.859375 -27.625 C 34.191406 -25.351562 35.359375 -21.984375 35.359375 -17.515625 L 35.359375 0 L 26.5 0 L 26.5 -16.140625 C 26.5 -18.566406 25.96875 -20.378906 24.90625 -21.578125 C 23.84375 -22.773438 22.304688 -23.375 20.296875 -23.375 C 18.054688 -23.375 16.273438 -22.679688 14.953125 -21.296875 C 13.628906 -19.910156 12.96875 -17.851562 12.96875 -15.125 L 12.96875 0 L 4.09375 0 L 4.09375 -30.59375 L 12.5625 -30.59375 L 12.5625 -27.015625 C 13.738281 -28.296875 15.195312 -29.285156 16.9375 -29.984375 C 18.6875 -30.691406 20.601562 -31.046875 22.6875 -31.046875 Z M 22.6875 -31.046875 "/></g></g></g><g fill="#000000" fill-opacity="1"><g transform="translate(224.182686, 125.484276)"><g><path d="M 34.0625 -15.1875 C 34.0625 -15.070312 34.003906 -14.273438 33.890625 -12.796875 L 10.75 -12.796875 C 11.164062 -10.898438 12.148438 -9.398438 13.703125 -8.296875 C 15.253906 -7.203125 17.1875 -6.65625 19.5 -6.65625 C 21.09375 -6.65625 22.503906 -6.890625 23.734375 -7.359375 C 24.972656 -7.835938 26.117188 -8.585938 27.171875 -9.609375 L 31.890625 -4.484375 C 29.015625 -1.191406 24.8125 0.453125 19.28125 0.453125 C 15.820312 0.453125 12.765625 -0.21875 10.109375 -1.5625 C 7.460938 -2.90625 5.414062 -4.769531 3.96875 -7.15625 C 2.53125 -9.550781 1.8125 -12.265625 1.8125 -15.296875 C 1.8125 -18.285156 2.519531 -20.984375 3.9375 -23.390625 C 5.363281 -25.804688 7.316406 -27.6875 9.796875 -29.03125 C 12.285156 -30.375 15.066406 -31.046875 18.140625 -31.046875 C 21.128906 -31.046875 23.835938 -30.398438 26.265625 -29.109375 C 28.691406 -27.816406 30.597656 -25.96875 31.984375 -23.5625 C 33.367188 -21.15625 34.0625 -18.363281 34.0625 -15.1875 Z M 18.1875 -24.328125 C 16.1875 -24.328125 14.503906 -23.757812 13.140625 -22.625 C 11.773438 -21.488281 10.9375 -19.9375 10.625 -17.96875 L 25.703125 -17.96875 C 25.398438 -19.90625 24.566406 -21.445312 23.203125 -22.59375 C 21.835938 -23.75 20.164062 -24.328125 18.1875 -24.328125 Z M 18.1875 -24.328125 "/></g></g></g><g fill="#000000" fill-opacity="1"><g transform="translate(254.488402, 125.484276)"><g><path d="M 14.390625 0.453125 C 11.847656 0.453125 9.363281 0.140625 6.9375 -0.484375 C 4.507812 -1.109375 2.578125 -1.894531 1.140625 -2.84375 L 4.09375 -9.21875 C 5.457031 -8.34375 7.101562 -7.628906 9.03125 -7.078125 C 10.96875 -6.523438 12.867188 -6.25 14.734375 -6.25 C 18.484375 -6.25 20.359375 -7.179688 20.359375 -9.046875 C 20.359375 -9.910156 19.84375 -10.53125 18.8125 -10.90625 C 17.789062 -11.289062 16.21875 -11.617188 14.09375 -11.890625 C 11.59375 -12.265625 9.523438 -12.695312 7.890625 -13.1875 C 6.265625 -13.6875 4.851562 -14.5625 3.65625 -15.8125 C 2.46875 -17.0625 1.875 -18.84375 1.875 -21.15625 C 1.875 -23.082031 2.429688 -24.796875 3.546875 -26.296875 C 4.671875 -27.796875 6.300781 -28.960938 8.4375 -29.796875 C 10.582031 -30.628906 13.113281 -31.046875 16.03125 -31.046875 C 18.195312 -31.046875 20.347656 -30.804688 22.484375 -30.328125 C 24.628906 -29.859375 26.398438 -29.207031 27.796875 -28.375 L 24.84375 -22.0625 C 22.15625 -23.570312 19.21875 -24.328125 16.03125 -24.328125 C 14.132812 -24.328125 12.710938 -24.0625 11.765625 -23.53125 C 10.816406 -23.007812 10.34375 -22.332031 10.34375 -21.5 C 10.34375 -20.550781 10.851562 -19.882812 11.875 -19.5 C 12.90625 -19.125 14.539062 -18.765625 16.78125 -18.421875 C 19.28125 -18.003906 21.320312 -17.554688 22.90625 -17.078125 C 24.5 -16.609375 25.882812 -15.75 27.0625 -14.5 C 28.238281 -13.25 28.828125 -11.503906 28.828125 -9.265625 C 28.828125 -7.367188 28.257812 -5.679688 27.125 -4.203125 C 25.988281 -2.722656 24.328125 -1.578125 22.140625 -0.765625 C 19.960938 0.046875 17.378906 0.453125 14.390625 0.453125 Z M 14.390625 0.453125 "/></g></g></g><g fill="#000000" fill-opacity="1"><g transform="translate(279.108151, 125.484276)"><g><path d="M 14.390625 0.453125 C 11.847656 0.453125 9.363281 0.140625 6.9375 -0.484375 C 4.507812 -1.109375 2.578125 -1.894531 1.140625 -2.84375 L 4.09375 -9.21875 C 5.457031 -8.34375 7.101562 -7.628906 9.03125 -7.078125 C 10.96875 -6.523438 12.867188 -6.25 14.734375 -6.25 C 18.484375 -6.25 20.359375 -7.179688 20.359375 -9.046875 C 20.359375 -9.910156 19.84375 -10.53125 18.8125 -10.90625 C 17.789062 -11.289062 16.21875 -11.617188 14.09375 -11.890625 C 11.59375 -12.265625 9.523438 -12.695312 7.890625 -13.1875 C 6.265625 -13.6875 4.851562 -14.5625 3.65625 -15.8125 C 2.46875 -17.0625 1.875 -18.84375 1.875 -21.15625 C 1.875 -23.082031 2.429688 -24.796875 3.546875 -26.296875 C 4.671875 -27.796875 6.300781 -28.960938 8.4375 -29.796875 C 10.582031 -30.628906 13.113281 -31.046875 16.03125 -31.046875 C 18.195312 -31.046875 20.347656 -30.804688 22.484375 -30.328125 C 24.628906 -29.859375 26.398438 -29.207031 27.796875 -28.375 L 24.84375 -22.0625 C 22.15625 -23.570312 19.21875 -24.328125 16.03125 -24.328125 C 14.132812 -24.328125 12.710938 -24.0625 11.765625 -23.53125 C 10.816406 -23.007812 10.34375 -22.332031 10.34375 -21.5 C 10.34375 -20.550781 10.851562 -19.882812 11.875 -19.5 C 12.90625 -19.125 14.539062 -18.765625 16.78125 -18.421875 C 19.28125 -18.003906 21.320312 -17.554688 22.90625 -17.078125 C 24.5 -16.609375 25.882812 -15.75 27.0625 -14.5 C 28.238281 -13.25 28.828125 -11.503906 28.828125 -9.265625 C 28.828125 -7.367188 28.257812 -5.679688 27.125 -4.203125 C 25.988281 -2.722656 24.328125 -1.578125 22.140625 -0.765625 C 19.960938 0.046875 17.378906 0.453125 14.390625 0.453125 Z M 14.390625 0.453125 "/></g></g></g></svg>