<svg xmlns="http://www.w3.org/2000/svg" xmlns:xlink="http://www.w3.org/1999/xlink" width="413" zoomAndPan="magnify" viewBox="0 0 309.75 126.749998" height="169" preserveAspectRatio="xMidYMid meet" version="1.0"><defs><g/><clipPath id="60a7bc9d27"><path d="M 0.179688 0 L 168 0 L 168 92.828125 L 0.179688 92.828125 Z M 0.179688 0 " clip-rule="nonzero"/></clipPath><clipPath id="59cd48b9b6"><path d="M 91 83 L 125 83 L 125 126.5 L 91 126.5 Z M 91 83 " clip-rule="nonzero"/></clipPath><clipPath id="9aa80cd43d"><path d="M 124 94 L 156 94 L 156 126.5 L 124 126.5 Z M 124 94 " clip-rule="nonzero"/></clipPath><clipPath id="a2c5096ee1"><path d="M 155 94 L 184 94 L 184 126.5 L 155 126.5 Z M 155 94 " clip-rule="nonzero"/></clipPath><clipPath id="8839ca0595"><path d="M 226 94 L 259 94 L 259 126.5 L 226 126.5 Z M 226 94 " clip-rule="nonzero"/></clipPath><clipPath id="ec18264830"><path d="M 255 94 L 284 94 L 284 126.5 L 255 126.5 Z M 255 94 " clip-rule="nonzero"/></clipPath><clipPath id="5273a73571"><path d="M 280 94 L 309 94 L 309 126.5 L 280 126.5 Z M 280 94 " clip-rule="nonzero"/></clipPath></defs><path fill="#ffffff" d="M 35.324219 39.863281 C 36.121094 36.875 35.195312 32.941406 32.519531 31.167969 C 30.402344 29.933594 27.796875 30.796875 25.511719 31.03125 C 24.207031 31.414062 22.816406 31.878906 21.734375 32.730469 C 21.601562 32.636719 21.441406 32.582031 21.246094 32.574219 C 20.269531 33.191406 21.246094 34.597656 21.25 35.507812 C 21.449219 38.6875 21.539062 41.875 22.054688 45.035156 C 22.082031 45.609375 22.660156 46.214844 23.214844 45.933594 C 23.390625 46.050781 23.582031 46.152344 23.800781 46.234375 C 28.023438 45.433594 33.222656 44.023438 35.324219 39.863281 " fill-opacity="1" fill-rule="nonzero"/><path fill="#ffffff" d="M 67.414062 70.996094 C 62.167969 71.453125 62.242188 67.195312 61.378906 63.378906 C 60.949219 61.839844 60.457031 60.320312 60.007812 58.785156 C 59.058594 55.078125 58.484375 51.226562 58.125 47.414062 C 57.824219 44.445312 58.445312 41.480469 58.078125 38.519531 C 57.84375 36.421875 57.476562 34.324219 57.597656 32.207031 C 58.027344 29.210938 58.097656 26.199219 58.042969 23.175781 C 59.476562 21.5625 61.421875 20.546875 63.429688 19.816406 C 63.691406 19.757812 63.929688 19.730469 64.152344 19.730469 C 66.667969 19.730469 66.765625 23.335938 67.074219 25.335938 C 67.988281 29.535156 68.027344 33.890625 69.21875 38.03125 C 69.898438 40.457031 70.242188 42.972656 70.222656 45.492188 C 70.4375 49.300781 70.492188 53.109375 70.214844 56.914062 C 69.84375 60.875 73.113281 69.988281 67.414062 70.996094 Z M 74.695312 49.382812 C 74.699219 47.546875 74.355469 45.75 74 43.957031 C 73.679688 41.855469 73.890625 39.71875 73.644531 37.609375 C 73.160156 34.738281 72.941406 31.824219 72.207031 28.996094 C 71.363281 26.046875 71.675781 22.871094 70.65625 19.976562 C 68.242188 14.726562 67.441406 15.621094 62.382812 15.183594 C 60.917969 15.015625 59.355469 15.25 58.183594 16.203125 C 57.398438 16.453125 56.652344 16.804688 56.054688 17.386719 C 52.367188 21.175781 52.289062 26.925781 52.90625 31.859375 C 53.007812 36.433594 53.300781 41 53.527344 45.566406 C 53.800781 48.953125 54.378906 52.308594 54.589844 55.699219 C 54.46875 59.464844 54.484375 63.304688 56.320312 66.695312 C 56.828125 69.421875 57.34375 72.582031 59.5625 74.472656 C 61.253906 75.699219 62.355469 76.46875 64.578125 76.582031 C 64.925781 76.574219 65.277344 76.574219 65.632812 76.578125 C 66.984375 76.582031 68.367188 76.585938 69.640625 76.164062 C 72.886719 74.628906 74.296875 70.960938 74.882812 67.636719 C 75.582031 63.941406 74.542969 60.246094 74.261719 56.5625 C 74.164062 54.160156 74.625 51.777344 74.695312 49.382812 " fill-opacity="1" fill-rule="nonzero"/><path fill="#ffffff" d="M 90.304688 60.371094 C 90.28125 60.347656 90.257812 60.320312 90.238281 60.296875 C 90.433594 60.480469 90.636719 60.660156 90.847656 60.832031 C 90.832031 60.824219 90.820312 60.816406 90.808594 60.804688 C 90.632812 60.664062 90.46875 60.523438 90.304688 60.371094 Z M 115.554688 48.664062 C 114.183594 48.722656 112.597656 49.335938 112.363281 50.851562 C 112.242188 52.164062 112.425781 53.476562 112.644531 54.78125 C 112.449219 54.996094 112.25 55.203125 112.042969 55.402344 C 111.394531 55.890625 110.796875 56.359375 110.445312 56.457031 C 108.160156 57.675781 105.492188 57.679688 103 58.171875 C 101.769531 58.21875 100.554688 58.039062 99.335938 57.871094 C 97.96875 56.703125 95.792969 55.871094 94.886719 54.78125 C 92.515625 52.046875 91.289062 48.398438 91.035156 44.820312 C 91.992188 40.996094 92.027344 36.933594 93.621094 33.285156 C 94.925781 31.84375 95.933594 30.195312 97.085938 28.640625 C 97.609375 27.964844 98.3125 27.417969 98.871094 26.777344 C 99.214844 26.628906 99.550781 26.460938 99.886719 26.289062 C 101.914062 26.113281 103.949219 26.089844 105.984375 25.953125 C 106.628906 25.832031 107.390625 25.894531 108.160156 25.953125 C 108.753906 25.996094 109.355469 26.042969 109.917969 26.007812 C 110.042969 26.832031 110.195312 27.652344 110.371094 28.464844 C 110.402344 29.363281 110.785156 30.792969 111.960938 30.453125 C 112.285156 30.710938 112.757812 30.828125 113.273438 30.828125 C 114.539062 30.828125 116.0625 30.109375 116.25 29.011719 C 116.421875 27.410156 115.796875 25.835938 115.566406 24.261719 C 115.292969 22.675781 115.335938 21.070312 115.28125 19.46875 C 115.230469 16.164062 114.160156 16.488281 112.351562 16.808594 C 111.796875 16.90625 111.175781 17.003906 110.492188 17 C 108.582031 17.246094 109.640625 19.644531 109.425781 20.921875 C 109.429688 20.976562 109.429688 21.03125 109.433594 21.085938 C 109.421875 21.082031 109.410156 21.082031 109.398438 21.082031 C 109.21875 21.066406 109.039062 21.050781 108.859375 21.035156 C 108.707031 21.023438 108.546875 20.996094 108.398438 21 C 108.074219 21.007812 107.75 21.011719 107.425781 21.019531 C 106.828125 21.035156 106.242188 21.011719 105.652344 20.960938 C 104.976562 20.867188 104.300781 20.738281 103.625 20.695312 C 102.929688 20.652344 102.242188 20.691406 101.550781 20.746094 C 101.195312 20.773438 100.839844 20.800781 100.480469 20.835938 C 100.136719 20.867188 99.789062 20.890625 99.449219 20.953125 C 98.75 21.082031 98.070312 21.3125 97.375 21.484375 C 96.714844 21.640625 96.050781 21.769531 95.394531 21.941406 C 95.042969 22.039062 94.707031 22.183594 94.371094 22.324219 C 94.039062 22.472656 93.699219 22.660156 93.394531 22.859375 C 92.789062 23.257812 92.183594 23.664062 91.589844 24.078125 C 91.015625 24.472656 90.480469 24.894531 90 25.394531 C 89.550781 25.832031 89.0625 26.425781 88.59375 27.03125 C 88.199219 27.539062 87.796875 28.042969 87.394531 28.550781 C 86.511719 29.675781 85.753906 30.902344 85.269531 32.253906 C 84.757812 33.679688 84.492188 35.210938 84.40625 36.722656 C 84.382812 37.167969 84.359375 37.609375 84.363281 38.054688 C 84.367188 38.398438 84.390625 38.738281 84.402344 39.082031 C 84.421875 39.773438 84.421875 40.460938 84.40625 41.152344 C 84.347656 42.03125 84.253906 42.90625 84.136719 43.78125 C 84.015625 44.699219 83.894531 45.625 83.878906 46.546875 C 83.863281 47.484375 83.890625 48.414062 83.996094 49.347656 C 84.09375 50.25 84.285156 51.140625 84.460938 52.03125 C 84.625 53.054688 84.710938 54.082031 84.871094 55.101562 C 85.042969 56.203125 85.320312 57.3125 85.746094 58.34375 C 86.191406 59.417969 86.671875 60.480469 87.46875 61.347656 C 87.835938 61.75 88.273438 62.070312 88.71875 62.378906 C 89.101562 62.644531 89.496094 62.890625 89.910156 63.101562 C 90.507812 63.402344 91.125 63.640625 91.746094 63.886719 C 92.347656 64.128906 92.949219 64.367188 93.550781 64.605469 C 94.664062 65.050781 95.851562 65.28125 97.035156 65.410156 C 97.582031 65.472656 98.128906 65.492188 98.675781 65.492188 C 99.441406 65.492188 100.210938 65.449219 100.980469 65.40625 C 102.191406 65.335938 103.414062 65.351562 104.625 65.214844 C 105.285156 65.140625 105.941406 65.054688 106.582031 64.871094 C 106.871094 64.789062 107.171875 64.714844 107.453125 64.589844 C 107.722656 64.46875 107.988281 64.34375 108.25 64.203125 C 108.800781 63.910156 109.300781 63.539062 109.792969 63.160156 C 110.234375 62.824219 110.664062 62.457031 111.070312 62.074219 C 111.328125 61.839844 111.609375 61.609375 111.839844 61.34375 C 112.042969 61.105469 112.242188 60.859375 112.417969 60.601562 C 112.566406 60.386719 112.703125 60.167969 112.835938 59.945312 C 112.882812 60.359375 113.007812 60.765625 113.265625 61.144531 C 113.300781 61.820312 113.304688 62.621094 113.78125 63.117188 C 113.996094 63.640625 114.484375 63.871094 115.027344 63.871094 C 115.734375 63.871094 116.53125 63.472656 116.90625 62.820312 C 117.070312 62.417969 117.105469 61.996094 117.082031 61.574219 C 117.882812 60.355469 117.15625 58.070312 117.234375 56.6875 C 117.082031 54.855469 117.488281 53.046875 117.480469 51.21875 C 117.46875 50.101562 116.921875 48.53125 115.554688 48.664062 " fill-opacity="1" fill-rule="nonzero"/><g clip-path="url(#60a7bc9d27)"><path fill="#ffffff" d="M 154.4375 71.011719 C 152.730469 68.785156 151.796875 65.992188 149.746094 63.976562 C 147.953125 61.84375 147.015625 59.109375 145.1875 56.988281 C 143.054688 54.800781 142.304688 51.691406 140.238281 49.4375 C 139.40625 48.640625 139.296875 47.15625 138.328125 46.566406 C 137.613281 45.746094 135.964844 46.8125 137.234375 47.890625 C 137.320312 51.109375 136.214844 54.234375 136.644531 57.449219 C 136.617188 60.101562 136.5625 62.738281 136.945312 65.375 C 137.121094 67.542969 136.71875 69.699219 136.792969 71.867188 C 135.757812 71.851562 134.710938 71.9375 133.683594 72.054688 C 133.042969 72.148438 132.46875 72.484375 131.871094 72.726562 C 131.878906 71.273438 131.550781 69.472656 131.492188 68.8125 C 131.402344 65.117188 131.101562 61.375 131.109375 57.636719 C 131.335938 55.296875 131.0625 52.96875 130.839844 50.640625 C 130.855469 48.082031 130.890625 45.710938 130.730469 43.125 C 130.875 40.542969 130.859375 37.972656 130.472656 35.40625 C 130.558594 32.195312 130.445312 28.984375 129.675781 25.851562 C 129.265625 23.625 129.714844 21.324219 129.21875 19.105469 C 129.035156 17.195312 129.234375 15.253906 128.714844 13.382812 C 128.558594 12.714844 128.691406 11.691406 128.660156 10.789062 C 128.71875 10.742188 128.773438 10.675781 128.816406 10.589844 C 128.988281 10.578125 129.164062 10.574219 129.335938 10.574219 C 129.941406 10.574219 130.546875 10.632812 131.152344 10.695312 C 132.164062 10.800781 133.171875 10.90625 134.1875 10.71875 C 133.632812 13.042969 133.875 15.421875 134.1875 17.765625 C 134.160156 20.355469 134.0625 22.9375 134.519531 25.503906 C 134.78125 27.503906 134.425781 29.527344 134.625 31.535156 C 134.808594 34.21875 135.332031 36.867188 135.910156 39.492188 C 136.316406 40.347656 136.894531 40.121094 137.183594 39.597656 C 138.152344 38.910156 138.894531 34.957031 139.488281 34.351562 C 140.164062 33.015625 140.449219 31.535156 140.898438 30.121094 C 141.675781 28.492188 142.265625 26.789062 142.628906 25.023438 C 142.949219 22.960938 143.878906 21.089844 144.375 19.074219 C 145.121094 16.554688 145.863281 14.03125 146.796875 11.582031 C 148.035156 11.625 149.265625 11.742188 150.5 11.5 C 151.730469 11.359375 152.914062 11.785156 154.132812 11.832031 C 152.789062 15.226562 150.699219 18.257812 149.378906 21.667969 C 147.582031 25.300781 146.519531 29.203125 145.164062 33 C 144.558594 34.777344 140.5625 41.105469 142.445312 42.34375 C 142.519531 42.378906 142.589844 42.402344 142.65625 42.417969 C 143.042969 43.648438 144.21875 44.609375 144.800781 45.765625 C 145.496094 47.449219 146.628906 48.886719 147.582031 50.425781 C 148.367188 52.320312 149.253906 54.195312 150.546875 55.796875 C 152.40625 58.867188 154.085938 62.074219 156.054688 65.082031 C 156.996094 66.878906 157.742188 68.765625 158.976562 70.398438 C 157.449219 70.351562 155.875 70.449219 154.4375 71.011719 Z M 116.421875 70.570312 C 113.820312 71.609375 111.066406 71.609375 108.3125 71.527344 C 105.324219 71.710938 102.429688 72.722656 99.410156 72.742188 C 97.667969 72.8125 95.972656 73.199219 94.253906 73.453125 C 92.375 73.699219 90.453125 73.390625 88.597656 73.828125 C 87.261719 74.191406 85.921875 74.574219 84.554688 74.78125 C 84.261719 71.9375 83.476562 69.164062 83.175781 66.316406 C 82.808594 62.015625 82.644531 57.679688 81.765625 53.441406 C 81.398438 50.113281 81.871094 46.753906 81.5 43.417969 C 81.105469 39.207031 81.421875 34.96875 80.609375 30.792969 C 80.363281 27.429688 80.640625 24.03125 79.855469 20.710938 C 79.710938 19.261719 79.648438 17.804688 79.574219 16.347656 C 80.644531 16.027344 81.753906 15.59375 82.328125 15.59375 C 82.347656 15.59375 82.363281 15.59375 82.378906 15.59375 C 83.921875 15.417969 85.421875 15.011719 86.878906 14.472656 C 88.386719 14.183594 89.929688 14.246094 91.429688 13.894531 C 94.132812 13.035156 96.917969 13.652344 99.683594 13.722656 C 102.503906 13.707031 105.296875 12.964844 108.109375 13.546875 C 110.246094 13.769531 112.378906 13.511719 114.511719 13.257812 C 116.601562 13.007812 118.695312 12.753906 120.800781 12.953125 C 120.804688 13.445312 120.8125 13.933594 120.824219 14.425781 C 120.140625 18.761719 120.144531 23.226562 120.605469 27.582031 C 120.765625 31.113281 120.746094 34.636719 121.082031 38.160156 C 121.484375 41.296875 121.261719 44.410156 121.25 47.550781 C 121.273438 48.257812 121.359375 48.957031 121.46875 49.65625 C 121.4375 50.660156 121.445312 51.660156 121.53125 52.667969 C 121.417969 55.347656 121.316406 58.039062 121.792969 60.6875 C 121.796875 60.855469 121.800781 61.023438 121.8125 61.1875 C 121.824219 61.3125 121.832031 61.433594 121.84375 61.558594 C 121.910156 64.097656 121.835938 66.648438 121.890625 69.191406 C 120.144531 69.933594 118.265625 70.160156 116.421875 70.570312 Z M 78.121094 86.503906 C 74.382812 87.5625 70.457031 87.789062 66.59375 88.019531 C 62.132812 88.359375 57.757812 90.351562 53.261719 89.152344 C 52.742188 88.28125 52.230469 87.820312 51.769531 87.652344 C 51.625 86.511719 51.492188 85.375 51.625 84.214844 C 52.203125 80.742188 51.476562 77.355469 51.234375 73.898438 C 51.09375 68.75 49.949219 63.644531 49.910156 58.488281 C 49.617188 54.253906 49.441406 50.042969 48.871094 45.835938 C 48.996094 44.066406 48.902344 42.3125 48.699219 40.5625 C 48.585938 38.957031 48.417969 37.351562 48.277344 35.746094 C 48.226562 34.597656 48.152344 33.457031 48.035156 32.316406 C 48.019531 32.042969 48.011719 31.769531 48.003906 31.492188 C 48.316406 28.472656 48.230469 25.480469 47.898438 22.480469 C 47.910156 21.761719 47.859375 21.054688 47.675781 20.375 C 47.828125 16.710938 47.148438 13.101562 46.792969 9.484375 C 47.585938 9.628906 48.542969 9.253906 49.332031 9.234375 C 50.925781 9.019531 52.480469 9.539062 54.0625 9.597656 C 55.632812 9.449219 57.1875 9.613281 58.738281 9.773438 C 60.667969 9.972656 62.589844 10.175781 64.539062 9.789062 C 66.535156 9.558594 68.476562 10.164062 70.453125 10.316406 C 72.769531 10.632812 75.109375 10.660156 77.425781 10.945312 C 77.308594 12.355469 77.167969 13.769531 77.121094 15.179688 C 76.960938 15.347656 76.859375 15.554688 76.839844 15.816406 C 76.847656 16.125 76.945312 16.339844 77.109375 16.472656 C 77.128906 17.632812 77.238281 18.792969 77.5 19.949219 C 77.632812 23.820312 78.667969 27.585938 78.832031 31.4375 C 78.558594 34.574219 78.683594 37.710938 78.984375 40.839844 C 78.949219 44.265625 79.199219 47.679688 79.78125 51.058594 C 80.054688 52.84375 79.832031 54.652344 79.890625 56.445312 C 79.921875 58.527344 80.429688 60.566406 80.589844 62.640625 C 80.699219 64.660156 81.148438 66.640625 81.351562 68.652344 C 81.453125 70.359375 81.289062 72.070312 81.488281 73.773438 C 81.976562 77.457031 83.253906 80.851562 83.523438 84.609375 C 81.632812 84.953125 79.949219 85.957031 78.121094 86.503906 Z M 37.4375 62.503906 C 35.835938 59.492188 38.203125 55.917969 33.757812 53.683594 C 31.203125 52.445312 29.132812 52.425781 26.398438 52.886719 C 24.566406 53.226562 21.746094 52.910156 22.003906 55.441406 C 21.597656 55.632812 21.273438 56.125 21.300781 56.910156 C 21.019531 59.925781 21.957031 63.175781 22.769531 66.054688 C 20.449219 66.019531 18.023438 65.949219 15.8125 66.738281 C 16.367188 66.5 17.035156 65.898438 17.230469 65.316406 C 18.570312 64.109375 16.851562 57.308594 16.765625 56.089844 C 16.5 54.324219 16.734375 52.535156 16.597656 50.761719 C 16.546875 48.867188 15.804688 47.070312 15.769531 45.179688 C 15.753906 43.183594 15.246094 41.25 14.953125 39.289062 C 14.789062 38.425781 15.070312 36.136719 14.652344 34.863281 C 14.917969 34.160156 14.738281 33.164062 14.015625 32.886719 C 13.59375 32.730469 13.152344 32.691406 12.707031 32.691406 C 12.453125 32.691406 12.195312 32.703125 11.9375 32.71875 C 11.609375 32.734375 11.28125 32.753906 10.957031 32.742188 C 10.773438 32.753906 10.566406 32.746094 10.347656 32.738281 C 10.128906 32.730469 9.902344 32.722656 9.683594 32.734375 C 9.785156 31.238281 9.074219 29.738281 9.199219 28.214844 C 10.835938 27.910156 12.476562 27.972656 14.117188 28.035156 C 15.867188 28.101562 17.617188 28.171875 19.359375 27.792969 C 22.449219 27.46875 25.398438 26.304688 28.527344 26.65625 C 29.488281 26.746094 30.476562 26.65625 31.464844 26.566406 C 33.152344 26.40625 34.839844 26.25 36.375 27.015625 C 37.765625 27.820312 38.746094 29.140625 40.019531 30.101562 C 41.9375 31.617188 42.183594 34.078125 42.085938 36.359375 C 41.957031 37.925781 42.253906 39.496094 42.097656 41.054688 C 41.398438 43.878906 39.082031 46.027344 36.59375 47.386719 C 35.730469 47.953125 34.550781 47.84375 33.402344 47.734375 C 32.046875 47.609375 30.726562 47.480469 30.007812 48.457031 C 29.683594 49.121094 29.773438 50.03125 30.34375 50.535156 C 30.601562 50.886719 32.558594 50.613281 34.652344 50.144531 C 35.574219 50.1875 36.453125 50.515625 37.324219 50.871094 C 42.269531 53.460938 38.65625 60.605469 43.929688 62.484375 C 42.949219 63.835938 38.351562 64.3125 37.4375 62.503906 Z M 166.789062 70.390625 C 166.140625 66.863281 166.671875 63.285156 166.355469 59.742188 C 165.996094 57.382812 165.179688 55.074219 165.433594 52.652344 C 165.585938 48.085938 165.074219 43.550781 164.796875 39.007812 C 165.160156 35.683594 164.894531 32.347656 164.355469 29.058594 C 164.152344 25.992188 164.113281 22.917969 163.425781 19.898438 C 162.835938 16.5625 163.265625 13.167969 163 9.800781 C 162.78125 7.609375 163.449219 5.351562 162.792969 3.21875 C 162.441406 1.757812 160.835938 1.695312 159.597656 1.613281 C 157.808594 1.558594 156.199219 1.300781 154.375 1.234375 C 151.355469 0.648438 148.1875 0.496094 145.148438 1.042969 C 143.316406 1.261719 141.644531 0.484375 139.875 0.21875 C 138.109375 -0.0625 136.363281 0.386719 134.609375 0.5625 C 132.105469 0.390625 129.675781 0.566406 127.222656 1.109375 C 126.554688 1.15625 125.890625 1.140625 125.222656 1.121094 C 124.195312 1.09375 123.171875 1.066406 122.160156 1.289062 C 122.058594 1.304688 121.953125 1.316406 121.84375 1.328125 C 121.832031 1.285156 121.820312 1.246094 121.808594 1.203125 C 121.152344 0.628906 120.828125 0.941406 120.683594 1.503906 C 120.382812 1.597656 120.117188 1.746094 119.945312 2.011719 C 119.65625 2.753906 119.984375 3.117188 120.605469 3.277344 C 120.605469 3.285156 120.609375 3.296875 120.609375 3.300781 C 120.714844 5.191406 120.742188 7.070312 120.648438 8.960938 C 120.695312 9.441406 120.722656 9.921875 120.746094 10.398438 C 119.304688 10.160156 117.257812 10.40625 115.414062 10.652344 C 113.777344 10.871094 112.304688 11.089844 111.5625 10.964844 C 109.644531 10.960938 107.757812 11.371094 105.859375 11.554688 C 102.878906 11.484375 99.914062 10.992188 96.9375 11.457031 C 95.453125 11.746094 93.972656 11.703125 92.484375 11.660156 C 91.71875 11.636719 90.953125 11.617188 90.183594 11.640625 C 88.804688 11.710938 87.511719 12.320312 86.148438 12.527344 C 84.492188 12.730469 83.007812 13.460938 81.488281 14.09375 C 81.027344 14.292969 80.25 14.351562 79.460938 14.441406 C 79.382812 13.292969 79.269531 12.144531 79.078125 11 C 79.183594 9.761719 78.921875 8.140625 77.371094 8.136719 C 74.824219 7.691406 72.246094 7.480469 69.660156 7.671875 C 66.652344 8.097656 63.746094 7.382812 60.777344 7.054688 C 58.261719 7.1875 55.820312 6.933594 53.292969 6.929688 C 51.179688 7.382812 49 7.1875 46.898438 7.609375 C 46.863281 7.589844 46.824219 7.574219 46.789062 7.5625 C 46.480469 7.226562 45.921875 7.183594 45.6875 7.902344 C 45.46875 10.890625 46.15625 13.929688 46.058594 16.945312 C 46.15625 17.5625 46.242188 18.179688 46.3125 18.800781 C 46.105469 18.78125 45.886719 18.800781 45.675781 18.855469 C 45.03125 18.855469 44.390625 18.84375 43.75 18.835938 C 41.160156 18.796875 38.574219 18.757812 36.03125 19.441406 C 34.671875 19.691406 33.296875 19.675781 31.917969 19.65625 C 30.984375 19.644531 30.050781 19.632812 29.121094 19.707031 C 26.679688 19.855469 24.261719 20.34375 21.816406 20.421875 C 18.621094 20.1875 15.578125 18.964844 12.316406 19.359375 C 9.210938 18.734375 6.128906 19.488281 3.023438 19.550781 C 2.371094 19.574219 2.007812 19.894531 1.855469 20.300781 C 1.164062 19.925781 0.453125 21.929688 1.355469 22.53125 C 1.195312 22.78125 1.121094 23.128906 1.234375 23.476562 C 0.269531 24.503906 1.492188 25.832031 1.335938 27.035156 C 1.128906 29.011719 0.960938 31.003906 1.609375 32.921875 C 1.773438 34.769531 1.996094 36.605469 2.347656 38.425781 C 2.21875 40.054688 2.417969 41.648438 2.710938 43.230469 C 2.347656 43.214844 2.03125 43.628906 2.078125 44.441406 C 2.800781 46.804688 3.0625 49.222656 3.308594 51.648438 C 3.421875 54.566406 3.378906 57.492188 3.859375 60.386719 C 3.917969 63.121094 3.882812 65.855469 3.917969 68.59375 C 3.707031 68.738281 3.558594 69.007812 3.59375 69.308594 C 3.660156 70.058594 3.75 70.808594 3.851562 71.550781 C 3.507812 72.441406 3.628906 73.691406 4.21875 74.394531 C 4.226562 74.394531 4.230469 74.398438 4.238281 74.402344 C 4.308594 74.945312 4.375 75.488281 4.429688 76.035156 C 4.484375 76.625 4.054688 78.523438 4.898438 78.359375 C 5.054688 78.878906 5.320312 79.308594 5.671875 79.484375 C 7.058594 79.863281 8.429688 80.402344 9.835938 80.695312 C 12.847656 80.832031 15.667969 79.644531 18.550781 78.984375 C 21.109375 78.429688 23.753906 78.519531 26.320312 78 C 27.777344 77.691406 29.25 77.710938 30.722656 77.730469 C 31.707031 77.742188 32.6875 77.753906 33.664062 77.667969 C 36.234375 77.28125 38.78125 76.894531 41.382812 76.78125 C 44.230469 76.488281 46.800781 75.023438 49.59375 74.441406 C 49.632812 74.777344 49.671875 75.109375 49.710938 75.441406 C 49.898438 77.261719 49.449219 79.070312 49.582031 80.886719 C 49.871094 83.375 49.832031 85.9375 50.242188 88.390625 C 49.566406 89.699219 49.902344 92.171875 52.429688 92.726562 C 52.816406 92.800781 53.203125 92.828125 53.585938 92.828125 C 55.570312 92.828125 57.523438 92.039062 59.503906 91.902344 C 61.53125 91.851562 63.566406 91.992188 65.546875 91.445312 C 68.007812 90.894531 70.550781 91.167969 73.023438 90.78125 C 74.90625 90.4375 76.703125 89.71875 78.617188 89.511719 C 81.101562 89.40625 84.296875 89.320312 85.714844 86.882812 C 86.265625 85.582031 85.542969 84.179688 85.277344 82.886719 C 84.777344 81.132812 84.753906 79.308594 84.652344 77.503906 C 84.65625 77.484375 84.65625 77.464844 84.65625 77.445312 C 85.15625 77.386719 85.671875 77.234375 86.140625 77.207031 C 88.261719 76.820312 90.363281 76.3125 92.503906 76.074219 C 94.378906 75.898438 96.28125 75.921875 98.132812 75.546875 C 100.378906 74.894531 102.683594 74.605469 105.011719 74.941406 C 108.261719 75.632812 111.164062 73.855469 114.273438 73.308594 C 116.902344 73.246094 119.414062 72.625 121.902344 71.828125 C 121.9375 71.824219 121.972656 71.820312 122.007812 71.8125 C 122.066406 72.65625 122.148438 73.5 122.269531 74.339844 C 122.558594 77.035156 121.820312 79.992188 122.792969 82.554688 C 121.835938 83.097656 121.945312 85.40625 123.40625 85.449219 C 127.738281 84.765625 132.171875 84.34375 136.5625 84 C 137.402344 83.984375 138.234375 84.105469 139.0625 84.222656 C 140.15625 84.382812 141.242188 84.542969 142.351562 84.386719 C 144.125 84.167969 145.804688 83.488281 147.492188 82.917969 C 149.480469 82.3125 151.554688 82.367188 153.605469 82.335938 C 157.65625 81.816406 161.746094 82.171875 165.746094 81.304688 C 168.648438 80.238281 166.976562 72.941406 166.789062 70.390625 " fill-opacity="1" fill-rule="nonzero"/></g><g fill="#ffffff" fill-opacity="1"><g transform="translate(173.458903, 58.003199)"><g><path d="M 37.28125 -37.0625 L 18.25 5.046875 C 16.820312 8.304688 15.175781 10.625 13.3125 12 C 11.445312 13.375 9.234375 14.0625 6.671875 14.0625 C 4.972656 14.0625 3.375 13.773438 1.875 13.203125 C 0.382812 12.640625 -0.878906 11.8125 -1.921875 10.71875 L -0.140625 8.015625 C 1.753906 9.960938 4.050781 10.9375 6.75 10.9375 C 8.539062 10.9375 10.078125 10.4375 11.359375 9.4375 C 12.640625 8.445312 13.820312 6.742188 14.90625 4.328125 L 16.890625 -0.140625 L 0.21875 -37.0625 L 3.96875 -37.0625 L 18.8125 -3.90625 L 33.65625 -37.0625 Z M 37.28125 -37.0625 "/></g></g></g><g fill="#ffffff" fill-opacity="1"><g transform="translate(203.987613, 58.003199)"><g><path d="M 22.015625 0.28125 C 18.503906 0.28125 15.34375 -0.519531 12.53125 -2.125 C 9.71875 -3.738281 7.503906 -5.976562 5.890625 -8.84375 C 4.285156 -11.707031 3.484375 -14.9375 3.484375 -18.53125 C 3.484375 -22.125 4.285156 -25.351562 5.890625 -28.21875 C 7.503906 -31.082031 9.71875 -33.316406 12.53125 -34.921875 C 15.34375 -36.535156 18.503906 -37.34375 22.015625 -37.34375 C 25.515625 -37.34375 28.671875 -36.535156 31.484375 -34.921875 C 34.304688 -33.316406 36.519531 -31.082031 38.125 -28.21875 C 39.738281 -25.351562 40.546875 -22.125 40.546875 -18.53125 C 40.546875 -14.9375 39.738281 -11.707031 38.125 -8.84375 C 36.519531 -5.976562 34.304688 -3.738281 31.484375 -2.125 C 28.671875 -0.519531 25.515625 0.28125 22.015625 0.28125 Z M 22.015625 -2.90625 C 24.847656 -2.90625 27.390625 -3.566406 29.640625 -4.890625 C 31.890625 -6.222656 33.664062 -8.070312 34.96875 -10.4375 C 36.269531 -12.800781 36.921875 -15.5 36.921875 -18.53125 C 36.921875 -21.5625 36.269531 -24.257812 34.96875 -26.625 C 33.664062 -28.988281 31.890625 -30.832031 29.640625 -32.15625 C 27.390625 -33.488281 24.847656 -34.15625 22.015625 -34.15625 C 19.171875 -34.15625 16.625 -33.488281 14.375 -32.15625 C 12.125 -30.832031 10.347656 -28.988281 9.046875 -26.625 C 7.742188 -24.257812 7.09375 -21.5625 7.09375 -18.53125 C 7.09375 -15.5 7.742188 -12.800781 9.046875 -10.4375 C 10.347656 -8.070312 12.125 -6.222656 14.375 -4.890625 C 16.625 -3.566406 19.171875 -2.90625 22.015625 -2.90625 Z M 22.015625 -2.90625 "/></g></g></g><g fill="#ffffff" fill-opacity="1"><g transform="translate(241.048166, 58.003199)"><g><path d="M 39.96875 -37.0625 L 39.96875 0 L 36.5625 0 L 36.5625 -7.953125 C 35.332031 -5.347656 33.507812 -3.320312 31.09375 -1.875 C 28.6875 -0.4375 25.847656 0.28125 22.578125 0.28125 C 17.753906 0.28125 13.96875 -1.066406 11.21875 -3.765625 C 8.46875 -6.460938 7.09375 -10.34375 7.09375 -15.40625 L 7.09375 -37.0625 L 10.65625 -37.0625 L 10.65625 -15.6875 C 10.65625 -11.519531 11.71875 -8.347656 13.84375 -6.171875 C 15.976562 -3.992188 18.984375 -2.90625 22.859375 -2.90625 C 27.023438 -2.90625 30.328125 -4.207031 32.765625 -6.8125 C 35.203125 -9.414062 36.421875 -12.921875 36.421875 -17.328125 L 36.421875 -37.0625 Z M 39.96875 -37.0625 "/></g></g></g><g fill="#ffffff" fill-opacity="1"><g transform="translate(281.587639, 58.003199)"><g><path d="M 10.9375 -28.96875 C 12.070312 -31.664062 13.84375 -33.734375 16.25 -35.171875 C 18.664062 -36.617188 21.601562 -37.34375 25.0625 -37.34375 L 25.0625 -33.859375 L 24.21875 -33.9375 C 20.09375 -33.9375 16.867188 -32.644531 14.546875 -30.0625 C 12.234375 -27.488281 11.078125 -23.90625 11.078125 -19.3125 L 11.078125 0 L 7.53125 0 L 7.53125 -37.0625 L 10.9375 -37.0625 Z M 10.9375 -28.96875 "/></g></g></g><g clip-path="url(#59cd48b9b6)"><g fill="#ffffff" fill-opacity="1"><g transform="translate(87.223552, 125.585548)"><g><path d="M 22.1875 -31.078125 C 25.039062 -31.078125 27.628906 -30.421875 29.953125 -29.109375 C 32.285156 -27.796875 34.113281 -25.953125 35.4375 -23.578125 C 36.769531 -21.210938 37.4375 -18.457031 37.4375 -15.3125 C 37.4375 -12.15625 36.769531 -9.390625 35.4375 -7.015625 C 34.113281 -4.648438 32.285156 -2.8125 29.953125 -1.5 C 27.628906 -0.195312 25.039062 0.453125 22.1875 0.453125 C 17.976562 0.453125 14.773438 -0.875 12.578125 -3.53125 L 12.578125 0 L 4.09375 0 L 4.09375 -42.21875 L 12.96875 -42.21875 L 12.96875 -27.375 C 15.207031 -29.84375 18.28125 -31.078125 22.1875 -31.078125 Z M 20.65625 -6.828125 C 22.9375 -6.828125 24.804688 -7.59375 26.265625 -9.125 C 27.722656 -10.664062 28.453125 -12.726562 28.453125 -15.3125 C 28.453125 -17.882812 27.722656 -19.9375 26.265625 -21.46875 C 24.804688 -23.007812 22.9375 -23.78125 20.65625 -23.78125 C 18.382812 -23.78125 16.515625 -23.007812 15.046875 -21.46875 C 13.585938 -19.9375 12.859375 -17.882812 12.859375 -15.3125 C 12.859375 -12.726562 13.585938 -10.664062 15.046875 -9.125 C 16.515625 -7.59375 18.382812 -6.828125 20.65625 -6.828125 Z M 20.65625 -6.828125 "/></g></g></g></g><g clip-path="url(#9aa80cd43d)"><g fill="#ffffff" fill-opacity="1"><g transform="translate(120.911146, 125.585548)"><g><path d="M 34.9375 -30.609375 L 34.9375 0 L 26.515625 0 L 26.515625 -3.640625 C 25.335938 -2.316406 23.929688 -1.300781 22.296875 -0.59375 C 20.671875 0.101562 18.910156 0.453125 17.015625 0.453125 C 12.992188 0.453125 9.804688 -0.703125 7.453125 -3.015625 C 5.097656 -5.328125 3.921875 -8.757812 3.921875 -13.3125 L 3.921875 -30.609375 L 12.796875 -30.609375 L 12.796875 -14.625 C 12.796875 -9.695312 14.863281 -7.234375 19 -7.234375 C 21.125 -7.234375 22.832031 -7.921875 24.125 -9.296875 C 25.414062 -10.679688 26.0625 -12.742188 26.0625 -15.484375 L 26.0625 -30.609375 Z M 34.9375 -30.609375 "/></g></g></g></g><g clip-path="url(#a2c5096ee1)"><g fill="#ffffff" fill-opacity="1"><g transform="translate(154.428018, 125.585548)"><g><path d="M 14.390625 0.453125 C 11.847656 0.453125 9.363281 0.140625 6.9375 -0.484375 C 4.507812 -1.109375 2.578125 -1.894531 1.140625 -2.84375 L 4.09375 -9.21875 C 5.457031 -8.34375 7.109375 -7.628906 9.046875 -7.078125 C 10.984375 -6.535156 12.878906 -6.265625 14.734375 -6.265625 C 18.492188 -6.265625 20.375 -7.191406 20.375 -9.046875 C 20.375 -9.921875 19.859375 -10.546875 18.828125 -10.921875 C 17.804688 -11.304688 16.234375 -11.628906 14.109375 -11.890625 C 11.609375 -12.273438 9.539062 -12.710938 7.90625 -13.203125 C 6.28125 -13.691406 4.867188 -14.5625 3.671875 -15.8125 C 2.472656 -17.070312 1.875 -18.859375 1.875 -21.171875 C 1.875 -23.109375 2.429688 -24.820312 3.546875 -26.3125 C 4.671875 -27.8125 6.304688 -28.976562 8.453125 -29.8125 C 10.597656 -30.65625 13.128906 -31.078125 16.046875 -31.078125 C 18.210938 -31.078125 20.363281 -30.835938 22.5 -30.359375 C 24.644531 -29.878906 26.421875 -29.222656 27.828125 -28.390625 L 24.875 -22.078125 C 22.175781 -23.597656 19.234375 -24.359375 16.046875 -24.359375 C 14.148438 -24.359375 12.726562 -24.09375 11.78125 -23.5625 C 10.832031 -23.03125 10.359375 -22.347656 10.359375 -21.515625 C 10.359375 -20.566406 10.867188 -19.898438 11.890625 -19.515625 C 12.921875 -19.140625 14.550781 -18.78125 16.78125 -18.4375 C 19.289062 -18.019531 21.34375 -17.570312 22.9375 -17.09375 C 24.53125 -16.625 25.910156 -15.765625 27.078125 -14.515625 C 28.253906 -13.265625 28.84375 -11.519531 28.84375 -9.28125 C 28.84375 -7.382812 28.273438 -5.691406 27.140625 -4.203125 C 26.003906 -2.722656 24.34375 -1.578125 22.15625 -0.765625 C 19.976562 0.046875 17.390625 0.453125 14.390625 0.453125 Z M 14.390625 0.453125 "/></g></g></g></g><g fill="#ffffff" fill-opacity="1"><g transform="translate(179.067631, 125.585548)"><g><path d="M 4.09375 -30.609375 L 12.96875 -30.609375 L 12.96875 0 L 4.09375 0 Z M 8.53125 -34.890625 C 6.90625 -34.890625 5.578125 -35.363281 4.546875 -36.3125 C 3.523438 -37.257812 3.015625 -38.429688 3.015625 -39.828125 C 3.015625 -41.234375 3.523438 -42.410156 4.546875 -43.359375 C 5.578125 -44.304688 6.90625 -44.78125 8.53125 -44.78125 C 10.164062 -44.78125 11.492188 -44.320312 12.515625 -43.40625 C 13.546875 -42.5 14.0625 -41.363281 14.0625 -40 C 14.0625 -38.519531 13.546875 -37.296875 12.515625 -36.328125 C 11.492188 -35.367188 10.164062 -34.890625 8.53125 -34.890625 Z M 8.53125 -34.890625 "/></g></g></g><g fill="#ffffff" fill-opacity="1"><g transform="translate(190.618982, 125.585548)"><g><path d="M 22.703125 -31.078125 C 26.492188 -31.078125 29.554688 -29.9375 31.890625 -27.65625 C 34.222656 -25.375 35.390625 -22 35.390625 -17.53125 L 35.390625 0 L 26.515625 0 L 26.515625 -16.15625 C 26.515625 -18.582031 25.984375 -20.394531 24.921875 -21.59375 C 23.859375 -22.789062 22.320312 -23.390625 20.3125 -23.390625 C 18.070312 -23.390625 16.285156 -22.695312 14.953125 -21.3125 C 13.628906 -19.925781 12.96875 -17.867188 12.96875 -15.140625 L 12.96875 0 L 4.09375 0 L 4.09375 -30.609375 L 12.578125 -30.609375 L 12.578125 -27.03125 C 13.753906 -28.320312 15.210938 -29.316406 16.953125 -30.015625 C 18.703125 -30.722656 20.617188 -31.078125 22.703125 -31.078125 Z M 22.703125 -31.078125 "/></g></g></g><g clip-path="url(#8839ca0595)"><g fill="#ffffff" fill-opacity="1"><g transform="translate(224.363484, 125.585548)"><g><path d="M 34.09375 -15.1875 C 34.09375 -15.070312 34.035156 -14.273438 33.921875 -12.796875 L 10.75 -12.796875 C 11.164062 -10.898438 12.148438 -9.398438 13.703125 -8.296875 C 15.265625 -7.203125 17.203125 -6.65625 19.515625 -6.65625 C 21.109375 -6.65625 22.519531 -6.890625 23.75 -7.359375 C 24.988281 -7.835938 26.140625 -8.585938 27.203125 -9.609375 L 31.921875 -4.5 C 29.035156 -1.195312 24.828125 0.453125 19.296875 0.453125 C 15.835938 0.453125 12.78125 -0.21875 10.125 -1.5625 C 7.46875 -2.90625 5.421875 -4.769531 3.984375 -7.15625 C 2.546875 -9.550781 1.828125 -12.269531 1.828125 -15.3125 C 1.828125 -18.300781 2.535156 -21 3.953125 -23.40625 C 5.378906 -25.820312 7.332031 -27.703125 9.8125 -29.046875 C 12.300781 -30.398438 15.082031 -31.078125 18.15625 -31.078125 C 21.15625 -31.078125 23.867188 -30.429688 26.296875 -29.140625 C 28.722656 -27.847656 30.628906 -25.992188 32.015625 -23.578125 C 33.398438 -21.171875 34.09375 -18.375 34.09375 -15.1875 Z M 18.203125 -24.359375 C 16.191406 -24.359375 14.503906 -23.785156 13.140625 -22.640625 C 11.773438 -21.503906 10.941406 -19.953125 10.640625 -17.984375 L 25.71875 -17.984375 C 25.414062 -19.921875 24.582031 -21.46875 23.21875 -22.625 C 21.851562 -23.78125 20.179688 -24.359375 18.203125 -24.359375 Z M 18.203125 -24.359375 "/></g></g></g></g><g clip-path="url(#ec18264830)"><g fill="#ffffff" fill-opacity="1"><g transform="translate(254.693658, 125.585548)"><g><path d="M 14.390625 0.453125 C 11.847656 0.453125 9.363281 0.140625 6.9375 -0.484375 C 4.507812 -1.109375 2.578125 -1.894531 1.140625 -2.84375 L 4.09375 -9.21875 C 5.457031 -8.34375 7.109375 -7.628906 9.046875 -7.078125 C 10.984375 -6.535156 12.878906 -6.265625 14.734375 -6.265625 C 18.492188 -6.265625 20.375 -7.191406 20.375 -9.046875 C 20.375 -9.921875 19.859375 -10.546875 18.828125 -10.921875 C 17.804688 -11.304688 16.234375 -11.628906 14.109375 -11.890625 C 11.609375 -12.273438 9.539062 -12.710938 7.90625 -13.203125 C 6.28125 -13.691406 4.867188 -14.5625 3.671875 -15.8125 C 2.472656 -17.070312 1.875 -18.859375 1.875 -21.171875 C 1.875 -23.109375 2.429688 -24.820312 3.546875 -26.3125 C 4.671875 -27.8125 6.304688 -28.976562 8.453125 -29.8125 C 10.597656 -30.65625 13.128906 -31.078125 16.046875 -31.078125 C 18.210938 -31.078125 20.363281 -30.835938 22.5 -30.359375 C 24.644531 -29.878906 26.421875 -29.222656 27.828125 -28.390625 L 24.875 -22.078125 C 22.175781 -23.597656 19.234375 -24.359375 16.046875 -24.359375 C 14.148438 -24.359375 12.726562 -24.09375 11.78125 -23.5625 C 10.832031 -23.03125 10.359375 -22.347656 10.359375 -21.515625 C 10.359375 -20.566406 10.867188 -19.898438 11.890625 -19.515625 C 12.921875 -19.140625 14.550781 -18.78125 16.78125 -18.4375 C 19.289062 -18.019531 21.34375 -17.570312 22.9375 -17.09375 C 24.53125 -16.625 25.910156 -15.765625 27.078125 -14.515625 C 28.253906 -13.265625 28.84375 -11.519531 28.84375 -9.28125 C 28.84375 -7.382812 28.273438 -5.691406 27.140625 -4.203125 C 26.003906 -2.722656 24.34375 -1.578125 22.15625 -0.765625 C 19.976562 0.046875 17.390625 0.453125 14.390625 0.453125 Z M 14.390625 0.453125 "/></g></g></g></g><g clip-path="url(#5273a73571)"><g fill="#ffffff" fill-opacity="1"><g transform="translate(279.333278, 125.585548)"><g><path d="M 14.390625 0.453125 C 11.847656 0.453125 9.363281 0.140625 6.9375 -0.484375 C 4.507812 -1.109375 2.578125 -1.894531 1.140625 -2.84375 L 4.09375 -9.21875 C 5.457031 -8.34375 7.109375 -7.628906 9.046875 -7.078125 C 10.984375 -6.535156 12.878906 -6.265625 14.734375 -6.265625 C 18.492188 -6.265625 20.375 -7.191406 20.375 -9.046875 C 20.375 -9.921875 19.859375 -10.546875 18.828125 -10.921875 C 17.804688 -11.304688 16.234375 -11.628906 14.109375 -11.890625 C 11.609375 -12.273438 9.539062 -12.710938 7.90625 -13.203125 C 6.28125 -13.691406 4.867188 -14.5625 3.671875 -15.8125 C 2.472656 -17.070312 1.875 -18.859375 1.875 -21.171875 C 1.875 -23.109375 2.429688 -24.820312 3.546875 -26.3125 C 4.671875 -27.8125 6.304688 -28.976562 8.453125 -29.8125 C 10.597656 -30.65625 13.128906 -31.078125 16.046875 -31.078125 C 18.210938 -31.078125 20.363281 -30.835938 22.5 -30.359375 C 24.644531 -29.878906 26.421875 -29.222656 27.828125 -28.390625 L 24.875 -22.078125 C 22.175781 -23.597656 19.234375 -24.359375 16.046875 -24.359375 C 14.148438 -24.359375 12.726562 -24.09375 11.78125 -23.5625 C 10.832031 -23.03125 10.359375 -22.347656 10.359375 -21.515625 C 10.359375 -20.566406 10.867188 -19.898438 11.890625 -19.515625 C 12.921875 -19.140625 14.550781 -18.78125 16.78125 -18.4375 C 19.289062 -18.019531 21.34375 -17.570312 22.9375 -17.09375 C 24.53125 -16.625 25.910156 -15.765625 27.078125 -14.515625 C 28.253906 -13.265625 28.84375 -11.519531 28.84375 -9.28125 C 28.84375 -7.382812 28.273438 -5.691406 27.140625 -4.203125 C 26.003906 -2.722656 24.34375 -1.578125 22.15625 -0.765625 C 19.976562 0.046875 17.390625 0.453125 14.390625 0.453125 Z M 14.390625 0.453125 "/></g></g></g></g></svg>